<?xml version="1.0" encoding="UTF-8"?>
<svg id="Layer_2" data-name="Layer 2" xmlns="http://www.w3.org/2000/svg" xmlns:xlink="http://www.w3.org/1999/xlink" viewBox="0 0 1437.32 417.7">
  <defs>
    <style>
      .cls-1 {
        fill: url(#linear-gradient-2);
      }

      .cls-2 {
        letter-spacing: .16em;
      }

      .cls-3 {
        letter-spacing: .22em;
      }

      .cls-4 {
        letter-spacing: .21em;
      }

      .cls-5 {
        letter-spacing: .21em;
      }

      .cls-6 {
        fill: #f7f7f7;
        font-family: Roboto-Regular, Roboto;
        font-size: 158.28px;
      }

      .cls-7 {
        letter-spacing: .22em;
      }

      .cls-8 {
        fill: url(#linear-gradient-3);
      }

      .cls-9 {
        fill: url(#linear-gradient);
      }
    </style>
    <linearGradient id="linear-gradient" x1="237.83" y1="336.44" x2="66.56" y2="58.75" gradientUnits="userSpaceOnUse">
      <stop offset="0" stop-color="#ab8137"/>
      <stop offset=".5" stop-color="#e9bc50"/>
      <stop offset="1" stop-color="#fef4b7"/>
    </linearGradient>
    <linearGradient id="linear-gradient-2" x1="241.45" y1="314.46" x2="78.6" y2="50.43" xlink:href="#linear-gradient"/>
    <linearGradient id="linear-gradient-3" x1="228.81" y1="322.26" x2="65.96" y2="58.22" xlink:href="#linear-gradient"/>
  </defs>
  <g id="Layer_1-2" data-name="Layer 1">
    <g>
      <text class="cls-6" transform="translate(335.65 259.59)"><tspan class="cls-5" x="0" y="0">K</tspan><tspan class="cls-4" x="132.05" y="0">e</tspan><tspan class="cls-3" x="249.72" y="0">yVie</tspan><tspan class="cls-2" x="686.87" y="0">w</tspan><tspan class="cls-7" x="831.05" y="0">.ai</tspan></text>
      <g>
        <path class="cls-9" d="m265.28,86.82v107.41c0,.88-.49,1.69-1.28,2.09l-111.66,58.94-.09-26.58c0-.62.34-1.19.89-1.47l86.13-45.95c.78-.4,1.27-1.21,1.27-2.09v-78.91c0-.8-.4-1.54-1.07-1.97L133.91,29.86c-.78-.5-1.77-.5-2.55,0L25.81,98.3c-.66.43-1.07,1.17-1.07,1.97v79.18c0,.86.46,1.64,1.22,2.06l103.7,57.11c.75.42,1.22,1.2,1.22,2.06v143.04h-16.63v33.99h-8.11v-162.42c0-.86-.47-1.64-1.22-2.06L1.22,196.12c-.76-.42-1.22-1.2-1.22-2.06v-107.24c0-.8.4-1.54,1.07-1.97L131.36.38c.78-.5,1.77-.5,2.55,0l130.29,84.48c.67.43,1.07,1.17,1.07,1.97Z"/>
        <path class="cls-1" d="m209.52,163.11h-20.04c-1.3,0-2.35-1.05-2.35-2.35v-31.83c0-.8-.41-1.55-1.09-1.98l-52.14-33.02c-.77-.49-1.75-.49-2.51,0l-52.14,33.02c-.68.43-1.09,1.18-1.09,1.98v31.83c0,1.3-1.05,2.35-2.35,2.35h-20.04c-1.3,0-2.35-1.05-2.35-2.35v-45.45c0-.8.41-1.55,1.09-1.98l76.88-48.69c.77-.49,1.75-.49,2.51,0l76.88,48.69c.68.43,1.09,1.18,1.09,1.98v45.45c0,1.3-1.05,2.35-2.35,2.35Z"/>
        <path class="cls-8" d="m130.08,197.87l-17.93-31.06c-1.14-1.97.28-4.43,2.56-4.43h35.86c2.27,0,3.7,2.46,2.56,4.43l-17.93,31.06c-1.14,1.97-3.98,1.97-5.12,0Z"/>
      </g>
    </g>
  </g>
</svg>